PathFileType	4	(X/Y/Z)	SUBJ11_3_walk_RCNL2025.trc
DataRate	CameraRate	NumFrames	NumMarkers	Units	OrigDataRate	OrigDataStartFrame	OrigNumFrames
100	100	4	25	mm	100	1	432
Frame#	Time	R_Shoulder			L_Shoulder			C7			J_Notch			R_Elbow			L_Elbow			R_Wrist			L_Wrist			R_Asis			L_Asis			Sacral			Thoracic			Sternum			R_Thigh_Lateral			R_Knee_Lateral			R_Shank_Lateral			R_Ankle_Lateral			R_Heel			R_Toe			L_Thigh_Lateral			L_Knee_Lateral			L_Shank_Lateral			L_Ankle_Lateral			L_Heel			L_Toe		
		X1	Y1	Z1	X2	Y2	Z2	X3	Y3	Z3	X4	Y4	Z4	X5	Y5	Z5	X6	Y6	Z6	X7	Y7	Z7	X8	Y8	Z8	X9	Y9	Z9	X10	Y10	Z10	X11	Y11	Z11	X12	Y12	Z12	X13	Y13	Z13	X14	Y14	Z14	X15	Y15	Z15	X16	Y16	Z16	X17	Y17	Z17	X18	Y18	Z18	X19	Y19	Z19	X20	Y20	Z20	X21	Y21	Z21	X22	Y22	Z22	X23	Y23	Z23	X24	Y24	Z24	X25	Y25	Z25
1	0.00000000	-1820.611572	1457.939697	58.859993	-1815.740601	1440.844238	-338.178406	-1856.587036	1501.359131	-140.727768	-1718.519775	1388.057983	-129.992462	-1917.750610	1132.885986	158.713745	-1833.802856	1097.159790	-420.049896	-1881.856323	871.355988	157.526665	-1738.260681	851.407990	-387.873795	-1764.328491	977.850098	29.693802	-1766.587769	969.362122	-265.125244	-1941.681396	998.178284	-119.142349	-1947.120605	1319.477173	-136.530563	-1668.337280	1188.689453	-124.693581	-1786.716553	633.382751	101.525620	-1770.976929	487.286316	46.129612	-1912.630981	341.990723	60.740570	-2053.710449	210.310165	-22.238806	-2096.552979	238.414017	-81.527336	-1978.028809	94.887810	-38.644653	-1829.555054	623.753845	-325.451141	-1789.174927	471.885315	-243.437576	-1799.438354	260.140350	-275.516296	-1806.533203	66.698578	-203.838516	-1862.702271	59.345161	-153.572495	-1674.172974	49.641338	-169.293549
2	0.01000000	-1811.642334	1458.481812	59.018044	-1805.322632	1442.773804	-337.990936	-1846.783813	1502.423950	-140.587875	-1708.814941	1389.189331	-129.787491	-1910.633911	1133.277222	156.398239	-1818.746582	1099.210815	-421.104340	-1879.044312	871.235229	155.540039	-1717.079224	856.017456	-387.410065	-1753.973999	979.224121	28.445314	-1756.851440	970.504272	-266.007446	-1931.308105	999.059753	-119.489418	-1937.241577	1320.279297	-137.262604	-1658.144409	1190.058594	-124.874298	-1768.751465	635.792969	101.088783	-1750.003052	489.590027	45.310856	-1887.618652	340.021637	60.668865	-2025.804932	205.181442	-21.526386	-2070.404297	231.940506	-80.186989	-1946.379639	93.098351	-38.903904	-1823.527832	624.550476	-325.498688	-1786.593018	471.983215	-243.077286	-1798.575562	260.283630	-275.393524	-1806.480103	66.749451	-203.830948	-1862.580078	59.570511	-153.505280	-1674.125610	49.578548	-169.257172
3	0.02000000	-1802.579468	1458.841187	59.212902	-1794.896118	1444.458130	-337.756378	-1836.956787	1503.276733	-140.421753	-1699.080933	1390.077515	-129.551208	-1903.603271	1133.532959	154.140198	-1803.860718	1101.089233	-422.153564	-1876.055908	871.115143	153.554817	-1696.112122	860.651581	-386.931412	-1743.582764	980.405212	27.310877	-1747.039917	971.460571	-266.763702	-1920.978271	999.746643	-119.800537	-1927.358643	1320.919312	-137.933334	-1647.918091	1191.187012	-125.012711	-1751.079956	638.087280	100.509636	-1729.413818	491.804047	44.265293	-1862.625000	337.690308	60.471191	-1997.203613	199.096054	-20.823572	-2043.478882	224.221603	-78.942146	-1913.882324	90.690445	-38.887817	-1817.416870	625.265198	-325.586090	-1784.082642	472.066925	-242.745789	-1797.765259	260.423645	-275.296967	-1806.438721	66.795174	-203.829834	-1862.459106	59.797005	-153.432007	-1674.066772	49.540432	-169.233887
4	0.03000000	-1793.412476	1458.990479	59.448437	-1784.452515	1445.866333	-337.482971	-1827.092529	1503.907593	-140.228928	-1689.297363	1390.709717	-129.268326	-1896.660156	1133.640625	151.967865	-1789.121094	1102.759888	-423.206177	-1872.868713	870.967682	151.571072	-1675.377075	865.259552	-386.439941	-1733.137207	981.371704	26.306368	-1737.155640	972.227966	-267.405457	-1910.686523	1000.225952	-120.070183	-1917.464600	1321.397461	-138.529999	-1637.682251	1192.048584	-125.114723	-1733.753784	640.219788	99.789253	-1709.292358	493.907440	43.014439	-1837.706055	335.103760	60.155407	-1967.959106	192.186584	-20.155907	-2015.754761	215.392166	-77.839043	-1880.625732	87.782166	-38.595695	-1811.214844	625.881104	-325.716675	-1781.619507	472.128967	-242.452560	-1796.979370	260.554016	-275.225281	-1806.404663	66.835258	-203.829742	-1862.349121	60.019188	-153.358810	-1673.980469	49.530632	-169.224091
